PathFileType	4	(X/Y/Z)	/Users/mathieubourgeois/Desktop/Analyse/Traitement/Sujet_07/Transformed_Static_Sujet_07_Tpose.trc
DataRate	CameraRate	NumFrames	NumMarkers	Units	OrigDataRate	OrigDataStartFrame	OrigNumFrames
120.000000	120.000000	4	36	mm	120.000000	178	286
Frame#	Time	RFHD			LFHD			RBHD			LBHD			C7			CLAV			RSHO			LSHO			STRN			T10			RBWT			LBWT			RFWT			LFWT			RKNI			LKNI			RKNE			LKNE			LANI			RANI			LANE			RANE			LTOE			RTOE			LHEE			RHEE			RHUM			LHUM			RRAD			LRAD			RWRA			RWRB			LWRA			LWRB			LCAR			RCAR			
		X1	Y1	Z1	X2	Y2	Z2	X3	Y3	Z3	X4	Y4	Z4	X5	Y5	Z5	X6	Y6	Z6	X7	Y7	Z7	X8	Y8	Z8	X9	Y9	Z9	X10	Y10	Z10	X11	Y11	Z11	X12	Y12	Z12	X13	Y13	Z13	X14	Y14	Z14	X15	Y15	Z15	X16	Y16	Z16	X17	Y17	Z17	X18	Y18	Z18	X19	Y19	Z19	X20	Y20	Z20	X21	Y21	Z21	X22	Y22	Z22	X23	Y23	Z23	X24	Y24	Z24	X25	Y25	Z25	X26	Y26	Z26	X27	Y27	Z27	X28	Y28	Z28	X29	Y29	Z29	X30	Y30	Z30	X31	Y31	Z31	X32	Y32	Z32	X33	Y33	Z33	X34	Y34	Z34	X35	Y35	Z35	X36	Y36	Z36	

179	1.483333333333333	-539.845458984375	1762.751708984375	324.0801696777342	-406.0636596679688	1762.377563476562	335.4573364257811	-541.6542358398438	1753.679565429688	169.8749694824217	-398.9707641601562	1752.118286132812	167.6996459960936	-468.0171508789062	1586.0908203125	144.7947845458983	-481.3602905273438	1534.34423828125	266.011505126953	-622.7333374023438	1597.603881835938	172.791778564453	-332.4813537597656	1598.247680664062	168.1365661621093	-478.7271423339844	1347.628173828125	307.043731689453	-473.2856140136719	1339.742797851562	93.44238281249986	-536.870361328125	1099.45556640625	175.5766448974608	-421.9084167480469	1093.98388671875	172.5387268066405	-585.6287231445312	1064.549560546875	350.2052001953124	-370.3689270019532	1065.54345703125	342.5980834960936	-543.5567626953125	476.1000366210938	204.5005950927734	-440.4095764160156	476.6810913085938	170.3865509033202	-646.8958129882812	533.0128173828125	205.835235595703	-334.0364074707031	518.501708984375	182.4043731689453	-426.4396362304688	86.60878753662111	210.7155303955078	-541.235107421875	89.7459182739258	203.5144500732421	-342.6806945800781	68.9137420654297	179.815185546875	-626.8869018554688	72.15294647216798	179.3966369628905	-350.5073852539063	29.61232757568362	397.0830993652343	-605.3984985351562	32.06202316284182	393.0075073242187	-390.4888916015625	50.20849990844727	132.8405609130859	-583.6231689453125	50.90177154541016	127.6125183105468	-939.038818359375	1465.889770507812	217.3335113525389	-20.59988594055178	1439.737670898438	216.0640869140624	-944.2346801757812	1516.458129882812	173.9104919433592	-5.378273487091087	1494.462280273438	177.826675415039	-1213.375854492188	1588.912231445312	216.5378417968748	-1218.536499023438	1522.572387695312	186.5021972656248	254.1821899414062	1545.784545898438	242.5811004638671	264.9567260742188	1472.876220703125	221.8248748779296	359.4135131835938	1527.565063476562	217.279800415039	-1321.69775390625	1567.034301757812	195.7077331542966	
180	1.491666666666667	-539.7627563476562	1762.773071289062	324.1047363281248	-405.9931640625001	1762.349853515625	335.4796142578123	-541.6013793945312	1753.7021484375	169.8799438476561	-398.906494140625	1752.091674804688	167.7113952636717	-468.0049133300781	1586.095458984375	144.8177795410155	-481.3432617187501	1534.346801757812	266.0248107910155	-622.7095336914062	1597.644897460938	172.8532409667967	-332.4547729492188	1598.241943359375	168.1394195556639	-478.7394104003907	1347.628295898438	307.0575256347655	-473.3029174804688	1339.740600585938	93.45183563232408	-536.8702392578125	1099.45654296875	175.5734710693358	-421.9128723144531	1093.985595703125	172.5577392578124	-585.656982421875	1064.551879882812	350.2151489257811	-370.3926391601563	1065.526123046875	342.6168518066405	-543.560546875	476.0965576171875	204.5011901855468	-440.4227905273438	476.6717224121094	170.3886260986327	-646.9111938476562	533.0083618164062	205.8088226318358	-334.0437316894531	518.499755859375	182.4230041503906	-426.4246215820312	86.6144256591797	210.7199401855468	-541.241455078125	89.74019622802736	203.5162658691406	-342.6851196289062	68.91551971435548	179.8165893554687	-626.8796997070312	72.15537261962892	179.4050903320312	-350.5023193359376	29.61308860778811	397.0822143554687	-605.4037475585938	32.0591621398926	393.0132141113281	-390.4899597167969	50.22018432617188	132.8488159179687	-583.621826171875	50.90598297119141	127.6203918457031	-939.0094604492188	1465.935302734375	217.3796081542967	-20.59358978271487	1439.684936523438	216.0950164794921	-944.218017578125	1516.505004882812	173.9504699707029	-5.360011577606223	1494.4169921875	177.8853454589843	-1213.381469726562	1588.906616210938	216.4643402099607	-1218.5244140625	1522.549560546875	186.4694519042966	254.2114868164062	1545.654418945312	242.580337524414	264.9500732421875	1472.756225585938	221.8309631347656	359.4281311035156	1527.42138671875	217.268814086914	-1321.693481445312	1566.97705078125	195.6351928710935	
181	1.5	-539.6720581054688	1762.789916992188	324.1470642089842	-405.9056701660157	1762.319091796875	335.4913330078123	-541.5400390625	1753.735107421875	169.8805236816405	-398.843017578125	1752.081665039062	167.7137908935545	-467.990966796875	1586.104614257812	144.824737548828	-481.3222045898438	1534.359130859375	266.0383911132811	-622.6959228515625	1597.680908203125	172.9017333984373	-332.4453430175781	1598.233764648438	168.1361694335936	-478.7301635742188	1347.63330078125	307.076202392578	-473.3118896484375	1339.741577148438	93.45277404785142	-536.88671875	1099.460571289062	175.5766143798827	-421.9137878417969	1093.98193359375	172.5669860839843	-585.683837890625	1064.55517578125	350.2135314941405	-370.4245910644532	1065.51904296875	342.6446838378905	-543.559814453125	476.0986328125	204.5042266845702	-440.4256591796875	476.6731262207031	170.3951110839843	-646.9086303710938	533.0115356445312	205.7909698486327	-334.0614624023438	518.4951782226562	182.4297180175781	-426.4188537597656	86.60071563720705	210.7375488281249	-541.2357177734375	89.74417877197267	203.4969635009765	-342.6817932128906	68.92054748535158	179.8202819824218	-626.8836059570312	72.16373443603517	179.4051513671874	-350.4939270019532	29.61586952209475	397.0791931152343	-605.4026489257812	32.05633926391604	393.0082397460937	-390.4945983886719	50.20559310913087	132.8356323242187	-583.6062622070312	50.90216827392579	127.6103057861327	-938.988037109375	1466.000244140625	217.4517364501951	-20.59158134460452	1439.634765625	216.122589111328	-944.193603515625	1516.553833007812	174.0030670166014	-5.347007274627708	1494.361083984375	177.9056854248046	-1213.385009765625	1588.927368164062	216.3776855468748	-1218.508056640625	1522.544189453125	186.4460296630857	254.2378845214843	1545.517578125	242.5721588134765	264.9347839355469	1472.640502929688	221.8484191894531	359.4373474121094	1527.257568359375	217.2626495361328	-1321.70556640625	1566.947387695312	195.5267791748044	
182	1.508333333333333	-539.5948486328125	1762.793212890625	324.1763305664061	-405.8208007812501	1762.286987304688	335.4942626953123	-541.4904174804688	1753.772338867188	169.9066467285155	-398.8026428222656	1752.057495117188	167.7144622802733	-467.9775085449219	1586.106811523438	144.8284606933592	-481.2937927246094	1534.361206054688	266.0426635742186	-622.6790161132812	1597.720581054688	172.9337005615233	-332.4215393066406	1598.2158203125	168.1350708007811	-478.7258911132813	1347.643432617188	307.0966186523436	-473.3197937011719	1339.744140625	93.46380615234361	-536.8856201171875	1099.447265625	175.5877990722655	-421.9309692382812	1093.964721679688	172.5950622558593	-585.7236328125	1064.55126953125	350.2066650390624	-370.4455871582032	1065.511108398438	342.6629333496093	-543.5678100585938	476.1021728515625	204.4605865478515	-440.4383850097656	476.6635131835938	170.3990783691405	-646.91845703125	533.0140991210938	205.7990417480468	-334.0685424804688	518.5009765625	182.424819946289	-426.4281921386719	86.60697174072267	210.7215118408203	-541.2352905273438	89.75147247314455	203.5037689208984	-342.6856079101562	68.90982055664064	179.8188323974609	-626.8751220703125	72.16721343994142	179.3995819091796	-350.5086669921876	29.61758613586428	397.0836791992187	-605.4051513671875	32.06480789184572	392.9988708496093	-390.4941711425781	50.21459960937501	132.8367919921874	-583.6039428710938	50.89986038208009	127.6124649047851	-938.969970703125	1466.066162109375	217.5401153564451	-20.5906505584717	1439.594116210938	216.1429748535155	-944.1796264648438	1516.603271484375	174.0553741455076	-5.35877847671511	1494.32373046875	177.9176788330077	-1213.395385742188	1588.953247070312	216.3070220947263	-1218.482421875	1522.548583984375	186.4255065917966	254.2496795654297	1545.405517578125	242.6027069091796	264.9188842773438	1472.526489257812	221.8439941406249	359.4390258789062	1527.1357421875	217.24951171875	-1321.705444335938	1566.93359375	195.3773193359372	
